<svg xmlns="http://www.w3.org/2000/svg" id="SvgjsSvg213272" width="4096" height="1464.467812321305" version="1.1" xmlns:xlink="http://www.w3.org/1999/xlink" xmlns:svgjs="http://svgjs.com/svgjs"><defs id="SvgjsDefs213273"></defs><g id="SvgjsG213274" transform="translate(328, 328) scale(34.4)" opacity="1"><defs id="SvgjsDefs46526"></defs><g id="SvgjsG46527" transform="scale(0.30096006259969305)" opacity="1"><g id="SvgjsG46528" class="08jyhZH6bB" transform="translate(0, 0) scale(1)" light-content="false" fill="#ffffff"><path d="M0 0 h 174.37 v 4 h -174.37 Z M0 0 h 4 v 78.09 h -4 Z M174.37 78.09 h -174.37 v -4 h 174.37 Z M174.37 78.09 h -4 v -78.09 h 4 Z" fill-rule="nonzero"></path></g><g id="SvgjsG46529" class="text" transform="translate(85.6, 63.040000000000006) scale(1)" light-content="false" fill="#ffffff"><path d="M-71.6 0L-40.78 0L-40.78 -8.32L-61.87 -8.32L-61.87 -47.99L-71.6 -47.99Z M-35.51 0L-2.46 0L-2.46 -8.32L-25.78 -8.32L-25.78 -20.68L-5.39 -20.68L-5.39 -28.89L-25.78 -28.89L-25.78 -39.61L-3.11 -39.61L-3.11 -47.99L-35.51 -47.99Z M0 -39.61L13.42 -39.61L13.42 0L23.09 0L23.09 -39.61L36.45 -39.61L36.45 -47.99L0 -47.99Z M37.62 -10.96C39.18 -7.25 41.7 -4.32 45.18 -2.17C48.65 -0.02 52.6 1.05 57.01 1.05C62.09 1.05 66.32 -0.21 69.7 -2.72C73.08 -5.24 74.77 -8.79 74.77 -13.36C74.77 -15.35 74.41 -17.15 73.71 -18.75C73.01 -20.35 72.01 -21.69 70.72 -22.76C69.43 -23.84 68.1 -24.73 66.71 -25.43C65.32 -26.13 63.75 -26.78 61.99 -27.36C61.56 -27.52 60.69 -27.79 59.38 -28.18C58.08 -28.57 57.18 -28.86 56.69 -29.03C56.2 -29.21 55.46 -29.49 54.46 -29.88C53.47 -30.27 52.76 -30.63 52.35 -30.94C51.94 -31.25 51.46 -31.64 50.89 -32.11C50.32 -32.58 49.94 -33.09 49.75 -33.63C49.55 -34.18 49.45 -34.78 49.45 -35.45C49.45 -37.01 50.1 -38.27 51.39 -39.23C52.68 -40.19 54.43 -40.66 56.66 -40.66C60.53 -40.66 63.75 -38.89 66.33 -35.33L74.53 -38.03C73.09 -41.27 70.85 -43.92 67.82 -45.97C64.79 -48.02 61.09 -49.04 56.72 -49.04C51.64 -49.04 47.48 -47.78 44.24 -45.26C41 -42.74 39.38 -39.45 39.38 -35.39C39.38 -30.43 41.7 -26.68 46.35 -24.14C47.91 -23.32 51 -22.15 55.61 -20.62C58.57 -19.61 60.82 -18.54 62.34 -17.43C63.87 -16.32 64.63 -14.82 64.63 -12.95C64.63 -11.31 63.96 -9.95 62.61 -8.88C61.26 -7.8 59.47 -7.27 57.25 -7.27C54.98 -7.27 52.8 -7.89 50.71 -9.14C48.62 -10.39 47.07 -11.95 46.05 -13.83Z"></path></g><g id="SvgjsG46530" class="text" transform="translate(255.39, 60.58) scale(1)" light-content="false" fill="#ffffff"><path d="M-71.02 0L-67.32 0L-67.32 -20.16L-47.58 -20.16L-47.58 -23.26L-67.32 -23.26L-67.32 -39.9L-45.41 -39.9L-45.41 -43.07L-71.02 -43.07Z M-37.56 0L-13.01 0L-13.01 -3.16L-33.87 -3.16L-33.87 -43.07L-37.56 -43.07Z M-10.49 -21.5C-10.49 -14.67 -8.91 -9.2 -5.74 -5.1C-2.58 -1 1.7 1.05 7.09 1.05C12.44 1.05 16.7 -0.99 19.86 -5.07C23.03 -9.15 24.61 -14.61 24.61 -21.45C24.61 -28.24 23.04 -33.72 19.89 -37.88C16.75 -42.04 12.48 -44.12 7.09 -44.12C1.74 -44.12 -2.53 -42.05 -5.71 -37.91C-8.9 -33.77 -10.49 -28.3 -10.49 -21.5ZM-6.68 -21.5C-6.68 -27.44 -5.44 -32.17 -2.96 -35.68C-0.48 -39.2 2.87 -40.96 7.09 -40.96C11.39 -40.96 14.75 -39.19 17.17 -35.65C19.59 -32.12 20.8 -27.38 20.8 -21.45C20.8 -15.51 19.56 -10.81 17.08 -7.35C14.6 -3.9 11.27 -2.17 7.09 -2.17C2.83 -2.17 -0.53 -3.93 -2.99 -7.44C-5.45 -10.96 -6.68 -15.64 -6.68 -21.5Z M28.48 -43.07L38.85 0L43.24 0L50.63 -29.77C50.78 -30.43 51.1 -31.78 51.59 -33.81C52.08 -35.84 52.42 -37.38 52.62 -38.44L52.79 -38.44C53.18 -36.41 53.83 -33.52 54.73 -29.77L62.17 0L66.56 0L76.88 -43.07L72.77 -43.07L66.09 -12.89C65.04 -7.46 64.47 -4.55 64.39 -4.16L64.22 -4.16C63.24 -8.5 62.58 -11.41 62.23 -12.89L54.73 -43.07L50.57 -43.07L43.13 -12.89C42.89 -11.91 42.25 -9 41.19 -4.16L40.9 -4.16C40.59 -5.92 40.04 -8.83 39.26 -12.89L32.58 -43.07Z"></path></g></g></g></svg>